<svg xmlns="http://www.w3.org/2000/svg" xmlns:xlink="http://www.w3.org/1999/xlink" viewBox="0 0 842.13 571.32"><defs><style>.fb333df9-e3ef-4a8c-9557-939e9505155f{fill:#fff;}.b379191b-2e74-44c1-93ea-2b856259628f{clip-path:url(#b219480a-0f6a-4250-8df3-b541bb78b41c);}.e16bb185-8038-48a0-9077-91742c9f34e9{fill:url(#a603af94-90e3-4e6f-b1b0-e88f28e7e7d7);}.ab344cd0-3dbc-4085-a611-e22988fd9696{clip-path:url(#b1d35f42-737f-4b7d-8fd0-f24c9c517ea1);}.e9c23085-eb7e-4d22-a22e-d30ec9494737{fill:url(#f3989cff-50a7-408b-abdb-7a125a6ce50d);}.a636a55f-014f-4fa4-97bb-77a74efd688e{clip-path:url(#fe52507c-4351-4c24-baec-cd021fe33fcf);}.f5710972-1e58-4937-b45d-c0ae47fd7916{fill:url(#ef956385-9c7d-491a-bb3a-597ce0b6f45a);}.bd1aba8f-d6c3-45c4-9c80-1bed143d0b2f{clip-path:url(#b929e3a6-ae75-4e9f-9077-4fc3e435b237);}</style><clipPath id="b219480a-0f6a-4250-8df3-b541bb78b41c"><path class="fb333df9-e3ef-4a8c-9557-939e9505155f" d="M195.79,197.29v-164H123.3V2.45H288.24c11.9,0,11.9,10.51,11.9,30.82H227.31s-.67,168.88-.67,190.77C219,218.87,202.1,203.56,195.79,197.29Z"/></clipPath><linearGradient id="a603af94-90e3-4e6f-b1b0-e88f28e7e7d7" x1="654.17" y1="-128.71" x2="310.12" y2="362.64" gradientUnits="userSpaceOnUse"><stop offset="0" stop-color="#fff"/><stop offset="0.34" stop-color="#fff"/><stop offset="0.7" stop-color="#fff"/><stop offset="1" stop-color="#fff"/></linearGradient><clipPath id="b1d35f42-737f-4b7d-8fd0-f24c9c517ea1"><path class="fb333df9-e3ef-4a8c-9557-939e9505155f" d="M450.46,228H365.71c-39.22,0-52.88-13.66-52.88-52.18V19.26c0-16.81,4.91-16.81,31.52-16.81h92.1c11.91,0,11.91,10.16,11.91,30.47h-104v71.44h85.1v28.71h-85.1v38.87c0,17.86,7.7,25.57,26.61,25.57h79.5Z"/></clipPath><linearGradient id="f3989cff-50a7-408b-abdb-7a125a6ce50d" x1="655.31" y1="-128.71" x2="311.26" y2="362.64" xlink:href="#a603af94-90e3-4e6f-b1b0-e88f28e7e7d7"/><clipPath id="fe52507c-4351-4c24-baec-cd021fe33fcf"><path class="fb333df9-e3ef-4a8c-9557-939e9505155f" d="M567.78,140.07l35.36,45.53C614,200,624.51,203.46,638.86,203.46h5.61v6.3c0,15.41-14.71,21.71-27.67,21.71-14.36,0-25.21-3.15-41.32-26.61L537,150.58H497V228H465.17V19.26c0-16.81,5.6-16.81,31.87-16.81h43.07c44.82,0,81.94,23.81,81.94,67.24C622.05,106.11,602.09,129.57,567.78,140.07Zm-34-108.55H497v89.65h40.27c27,0,51.13-16.81,51.13-46.58C588.44,43.77,562.87,31.52,533.81,31.52Z"/></clipPath><linearGradient id="ef956385-9c7d-491a-bb3a-597ce0b6f45a" x1="650.76" y1="-128.71" x2="306.71" y2="362.64" xlink:href="#a603af94-90e3-4e6f-b1b0-e88f28e7e7d7"/><clipPath id="b929e3a6-ae75-4e9f-9077-4fc3e435b237"><path class="fb333df9-e3ef-4a8c-9557-939e9505155f" d="M809.66,231.12,685.34,57.43V219.12c-6.8,7.25-24.14,12-31.51,12v-221c9.8-6.31,19.61-9.11,30.46-10.16L808.61,171.94V2.45h31.52V221C830.67,227.27,820.87,230.07,809.66,231.12Z"/></clipPath></defs><g id="a35c8499-b6d1-4f30-94a5-63e7a912d652" data-name="Layer 2"><g id="bb585506-422a-45d7-9fdf-0fffbe62205b" data-name="LOGO02"><path class="fb333df9-e3ef-4a8c-9557-939e9505155f" d="M195.79,197.29v-164H123.3V2.45H288.24c11.9,0,11.9,10.51,11.9,30.82H227.31s-.67,168.88-.67,190.77C219,218.87,202.1,203.56,195.79,197.29Z"/><g class="b379191b-2e74-44c1-93ea-2b856259628f"><rect class="e16bb185-8038-48a0-9077-91742c9f34e9" x="123.3" y="2.1" width="717.69" height="229.72"/></g><path class="fb333df9-e3ef-4a8c-9557-939e9505155f" d="M450.46,228H365.71c-39.22,0-52.88-13.66-52.88-52.18V19.26c0-16.81,4.91-16.81,31.52-16.81h92.1c11.91,0,11.91,10.16,11.91,30.47h-104v71.44h85.1v28.71h-85.1v38.87c0,17.86,7.7,25.57,26.61,25.57h79.5Z"/><g class="ab344cd0-3dbc-4085-a611-e22988fd9696"><rect class="e9c23085-eb7e-4d22-a22e-d30ec9494737" x="124.44" y="2.1" width="717.69" height="229.72"/></g><path class="fb333df9-e3ef-4a8c-9557-939e9505155f" d="M567.78,140.07l35.36,45.53C614,200,624.51,203.46,638.86,203.46h5.61v6.3c0,15.41-14.71,21.71-27.67,21.71-14.36,0-25.21-3.15-41.32-26.61L537,150.58H497V228H465.17V19.26c0-16.81,5.6-16.81,31.87-16.81h43.07c44.82,0,81.94,23.81,81.94,67.24C622.05,106.11,602.09,129.57,567.78,140.07Zm-34-108.55H497v89.65h40.27c27,0,51.13-16.81,51.13-46.58C588.44,43.77,562.87,31.52,533.81,31.52Z"/><g class="a636a55f-014f-4fa4-97bb-77a74efd688e"><rect class="f5710972-1e58-4937-b45d-c0ae47fd7916" x="119.89" y="2.1" width="717.69" height="229.72"/></g><path class="fb333df9-e3ef-4a8c-9557-939e9505155f" d="M809.66,231.12,685.34,57.43V219.12c-6.8,7.25-24.14,12-31.51,12v-221c9.8-6.31,19.61-9.11,30.46-10.16L808.61,171.94V2.45h31.52V221C830.67,227.27,820.87,230.07,809.66,231.12Z"/><g class="bd1aba8f-d6c3-45c4-9c80-1bed143d0b2f"><rect class="e16bb185-8038-48a0-9077-91742c9f34e9" x="123.3" y="2.1" width="717.69" height="229.72"/></g><path class="fb333df9-e3ef-4a8c-9557-939e9505155f" d="M182.67,468.38C138.18,477.78,40.7,508.93,0,571.32,55.26,506.54,151.94,478.69,182.67,468.38Z"/><path class="fb333df9-e3ef-4a8c-9557-939e9505155f" d="M76.73,150C53.19,48.75,87.78-1.25,93.67,9,99.71,19.48,65.13,41.61,76.73,150Z"/><path class="fb333df9-e3ef-4a8c-9557-939e9505155f" d="M661.37,276.74c61.41-34.52,91.17-95.87,82.39-104.39C737.35,166.12,714.54,238.62,661.37,276.74Z"/><path class="fb333df9-e3ef-4a8c-9557-939e9505155f" d="M718,240.93c-46,57-157.71,86.61-228.5,85.93-4.72,6.17-15,20.62-19.41,27-9.22,13.3-23.95,31.7-35,41.14,97.78-4.72,165.88-25.8,202.45-48.12,61.08-37.28,77.93-79.74,84.43-96.93C726.66,237.71,728.54,228.76,718,240.93Z"/><path class="fb333df9-e3ef-4a8c-9557-939e9505155f" d="M90.64,491.61c-6.59,3.16-13.16,6.46-19.7,10Q80.94,496.39,90.64,491.61Z"/><path class="fb333df9-e3ef-4a8c-9557-939e9505155f" d="M557.64,268.81c-15.62,1.82-48.87,12.3-56.73,16-6.55-7.1-29.62-13-49.88-1.89-16.7,9.18-28.33,23.48-56,25.1-94.34,7-231-64.1-302.6-222.15C88.11,74.36,84,73.37,84,96.93c0,33-3.25,118.44,75.6,206,44,48.8,117.9,65,92.21,98.81-30.37,34.09-89.56,54.46-161.21,89.89,35.12-16.84,70.74-28.88,104.29-38.12,54.94-15.12,124.61-21.87,164.23-30.61,61.18-13.49,82.38-41,111-82.13,12.54-18,20.44-28,28.46-35.34,15.39-14,43.57-30,59.09-36.24A.19.19,0,0,0,557.64,268.81Z"/></g></g></svg>