<svg xmlns="http://www.w3.org/2000/svg" xmlns:xlink="http://www.w3.org/1999/xlink" viewBox="0 0 842.13 571.32"><defs><style>.b1870ce2-fe94-4267-98d9-b3e328422c79{fill:#01589f;}.aaf944f9-b781-4ace-8493-4c5b97b2aaa2{clip-path:url(#a5dfd7e2-1007-491d-9765-37d376baa25e);}.b7fd2727-aa53-46ab-a9ba-79584f8f5ae9{fill:url(#eae0a515-5739-4348-9cd1-feffe8e9d31d);}.ad9120fc-b68d-4333-9308-03923b1c5243{clip-path:url(#af998455-4368-4585-8a71-a2e939e250fe);}.f5922d1b-26d6-46a4-a35a-49cf43e13dd3{fill:url(#a98d9e18-97f1-4f90-b411-e5ec730d5401);}.a94e0914-046a-4166-9b42-3f01061055ab{clip-path:url(#a01409a8-8a16-4f1f-9ed1-fa954d1c1d0b);}.a19760b2-b81c-42a7-bbaa-23b06e921c62{fill:url(#b269a4a8-c389-498f-8f82-82f57ada5d87);}.b658d8bc-9cdd-4ebc-b075-ef1f077cb57a{clip-path:url(#fcb2eca9-67ee-494d-93c4-e45f6e8d7dfb);}</style><clipPath id="a5dfd7e2-1007-491d-9765-37d376baa25e"><path class="b1870ce2-fe94-4267-98d9-b3e328422c79" d="M195.79,197.29v-164H123.3V2.45H288.24c11.9,0,11.9,10.51,11.9,30.82H227.31s-.67,168.88-.67,190.77C219,218.87,202.1,203.56,195.79,197.29Z"/></clipPath><linearGradient id="eae0a515-5739-4348-9cd1-feffe8e9d31d" x1="654.17" y1="-128.71" x2="310.12" y2="362.64" gradientUnits="userSpaceOnUse"><stop offset="0" stop-color="#01589f"/><stop offset="0.34" stop-color="#01589f"/><stop offset="0.7" stop-color="#01589f"/><stop offset="1" stop-color="#01589f"/></linearGradient><clipPath id="af998455-4368-4585-8a71-a2e939e250fe"><path class="b1870ce2-fe94-4267-98d9-b3e328422c79" d="M450.46,228H365.71c-39.22,0-52.88-13.66-52.88-52.18V19.26c0-16.81,4.91-16.81,31.52-16.81h92.1c11.91,0,11.91,10.16,11.91,30.47h-104v71.44h85.1v28.71h-85.1v38.87c0,17.86,7.7,25.57,26.61,25.57h79.5Z"/></clipPath><linearGradient id="a98d9e18-97f1-4f90-b411-e5ec730d5401" x1="655.31" y1="-128.71" x2="311.26" y2="362.64" xlink:href="#eae0a515-5739-4348-9cd1-feffe8e9d31d"/><clipPath id="a01409a8-8a16-4f1f-9ed1-fa954d1c1d0b"><path class="b1870ce2-fe94-4267-98d9-b3e328422c79" d="M567.78,140.07l35.36,45.53C614,200,624.51,203.46,638.86,203.46h5.61v6.3c0,15.41-14.71,21.71-27.67,21.71-14.36,0-25.21-3.15-41.32-26.61L537,150.58H497V228H465.17V19.26c0-16.81,5.6-16.81,31.87-16.81h43.07c44.82,0,81.94,23.81,81.94,67.24C622.05,106.11,602.09,129.57,567.78,140.07Zm-34-108.55H497v89.65h40.27c27,0,51.13-16.81,51.13-46.58C588.44,43.77,562.87,31.52,533.81,31.52Z"/></clipPath><linearGradient id="b269a4a8-c389-498f-8f82-82f57ada5d87" x1="650.76" y1="-128.71" x2="306.71" y2="362.64" xlink:href="#eae0a515-5739-4348-9cd1-feffe8e9d31d"/><clipPath id="fcb2eca9-67ee-494d-93c4-e45f6e8d7dfb"><path class="b1870ce2-fe94-4267-98d9-b3e328422c79" d="M809.66,231.12,685.34,57.43V219.12c-6.8,7.25-24.14,12-31.51,12v-221c9.8-6.31,19.61-9.11,30.46-10.16L808.61,171.94V2.45h31.52V221C830.67,227.27,820.87,230.07,809.66,231.12Z"/></clipPath></defs><g id="a5e8ff3f-19f0-4e2c-b9cd-740fac16edb8" data-name="Layer 2"><g id="b3ae0330-3329-446d-b13e-634bd831e53b" data-name="LOGO"><path class="b1870ce2-fe94-4267-98d9-b3e328422c79" d="M195.79,197.29v-164H123.3V2.45H288.24c11.9,0,11.9,10.51,11.9,30.82H227.31s-.67,168.88-.67,190.77C219,218.87,202.1,203.56,195.79,197.29Z"/><g class="aaf944f9-b781-4ace-8493-4c5b97b2aaa2"><rect class="b7fd2727-aa53-46ab-a9ba-79584f8f5ae9" x="123.3" y="2.1" width="717.69" height="229.72"/></g><path class="b1870ce2-fe94-4267-98d9-b3e328422c79" d="M450.46,228H365.71c-39.22,0-52.88-13.66-52.88-52.18V19.26c0-16.81,4.91-16.81,31.52-16.81h92.1c11.91,0,11.91,10.16,11.91,30.47h-104v71.44h85.1v28.71h-85.1v38.87c0,17.86,7.7,25.57,26.61,25.57h79.5Z"/><g class="ad9120fc-b68d-4333-9308-03923b1c5243"><rect class="f5922d1b-26d6-46a4-a35a-49cf43e13dd3" x="124.44" y="2.1" width="717.69" height="229.72"/></g><path class="b1870ce2-fe94-4267-98d9-b3e328422c79" d="M567.78,140.07l35.36,45.53C614,200,624.51,203.46,638.86,203.46h5.61v6.3c0,15.41-14.71,21.71-27.67,21.71-14.36,0-25.21-3.15-41.32-26.61L537,150.58H497V228H465.17V19.26c0-16.81,5.6-16.81,31.87-16.81h43.07c44.82,0,81.94,23.81,81.94,67.24C622.05,106.11,602.09,129.57,567.78,140.07Zm-34-108.55H497v89.65h40.27c27,0,51.13-16.81,51.13-46.58C588.44,43.77,562.87,31.52,533.81,31.52Z"/><g class="a94e0914-046a-4166-9b42-3f01061055ab"><rect class="a19760b2-b81c-42a7-bbaa-23b06e921c62" x="119.89" y="2.1" width="717.69" height="229.72"/></g><path class="b1870ce2-fe94-4267-98d9-b3e328422c79" d="M809.66,231.12,685.34,57.43V219.12c-6.8,7.25-24.14,12-31.51,12v-221c9.8-6.31,19.61-9.11,30.46-10.16L808.61,171.94V2.45h31.52V221C830.67,227.27,820.87,230.07,809.66,231.12Z"/><g class="b658d8bc-9cdd-4ebc-b075-ef1f077cb57a"><rect class="b7fd2727-aa53-46ab-a9ba-79584f8f5ae9" x="123.3" y="2.1" width="717.69" height="229.72"/></g><path class="b1870ce2-fe94-4267-98d9-b3e328422c79" d="M182.67,468.38C138.18,477.78,40.7,508.93,0,571.32,55.26,506.54,151.94,478.69,182.67,468.38Z"/><path class="b1870ce2-fe94-4267-98d9-b3e328422c79" d="M76.73,150C53.19,48.75,87.78-1.25,93.67,9,99.71,19.48,65.13,41.61,76.73,150Z"/><path class="b1870ce2-fe94-4267-98d9-b3e328422c79" d="M661.37,276.74c61.41-34.52,91.17-95.87,82.39-104.39C737.35,166.12,714.54,238.62,661.37,276.74Z"/><path class="b1870ce2-fe94-4267-98d9-b3e328422c79" d="M718,240.93c-46,57-157.71,86.61-228.5,85.93-4.72,6.17-15,20.62-19.41,27-9.22,13.3-23.95,31.7-35,41.14,97.78-4.72,165.88-25.8,202.45-48.12,61.08-37.28,77.93-79.74,84.43-96.93C726.66,237.71,728.54,228.76,718,240.93Z"/><path class="b1870ce2-fe94-4267-98d9-b3e328422c79" d="M90.64,491.61c-6.59,3.16-13.16,6.46-19.7,10Q80.94,496.39,90.64,491.61Z"/><path class="b1870ce2-fe94-4267-98d9-b3e328422c79" d="M557.64,268.81c-15.62,1.82-48.87,12.3-56.73,16-6.55-7.1-29.62-13-49.88-1.89-16.7,9.18-28.33,23.48-56,25.1-94.34,7-231-64.1-302.6-222.15C88.11,74.36,84,73.37,84,96.93c0,33-3.25,118.44,75.6,206,44,48.8,117.9,65,92.21,98.81-30.37,34.09-89.56,54.46-161.21,89.89,35.12-16.84,70.74-28.88,104.29-38.12,54.94-15.12,124.61-21.87,164.23-30.61,61.18-13.49,82.38-41,111-82.13,12.54-18,20.44-28,28.46-35.34,15.39-14,43.57-30,59.09-36.24A.19.19,0,0,0,557.64,268.81Z"/></g></g></svg>